<svg width="427" height="177" viewBox="0 0 427 177" fill="none" xmlns="http://www.w3.org/2000/svg">
<g clip-path="url(#clip0_42_2)">
<path d="M0 175.496V0H31.6178C50.8737 0 62.0468 17.0482 62.0468 46.381C62.0468 68.4433 55.8659 80.9788 46.3568 85.2408C57.4114 88.2493 65.0187 100.534 65.0187 125.605C65.0187 156.191 53.6077 175.496 33.163 175.496H0ZM32.0932 29.5836H17.8296V72.204H32.0932C39.7005 72.204 44.2173 63.9306 44.2173 50.8938C44.2173 37.8569 39.8193 29.5836 32.0932 29.5836ZM33.2818 101.286H17.8296V145.661H33.2818C41.84 145.661 46.7134 137.388 46.7134 123.85C46.7134 109.559 41.7212 101.286 33.2818 101.286Z" fill="white"/>
<path d="M103.774 177C83.4483 177 71.2056 151.177 71.2056 111.314C71.2056 71.201 83.6862 45.1274 102.586 45.1274C120.891 45.1274 133.252 69.1954 133.49 107.052C133.49 110.813 133.371 115.075 133.014 119.086H88.6784V120.841C89.0348 139.143 94.6214 150.174 103.061 150.174C109.836 150.174 114.591 143.907 116.017 131.873H132.539C130.637 156.943 120.058 177 103.774 177ZM89.0348 96.0211H116.611C115.423 80.2265 110.311 71.4517 102.705 71.4517C95.4536 71.4517 89.986 80.7279 89.0348 96.0211Z" fill="white"/>
<path d="M134.448 20.0567V0H198.753V20.0567H171.771V175.496H161.43V20.0567H134.448Z" fill="white"/>
<path d="M247.824 156.693H250.914V175.496H245.566C237.483 175.496 234.749 168.225 234.63 155.69C230.826 167.222 224.764 177 214.305 177C200.992 177 191.958 162.96 191.958 139.644C191.958 114.072 200.398 99.7818 216.325 99.7818H234.155V91.0071C234.155 74.4603 228.568 64.4319 219.059 64.4319C210.501 64.4319 204.795 72.956 203.607 85.9928H193.86C195.286 60.922 204.914 46.1302 219.534 46.1302C234.987 46.1302 243.901 62.4262 243.901 92.2605V148.169C243.901 154.938 245.09 156.693 247.824 156.693ZM234.155 123.348V117.081H215.374C206.697 117.081 201.824 123.85 201.824 138.391C201.824 150.926 206.935 159.45 215.017 159.45C227.142 159.45 234.155 144.659 234.155 123.348Z" fill="white"/>
<path d="M253.653 175.496V0H263.4V175.496H253.653Z" fill="white"/>
<path d="M299.931 177C281.745 177 269.858 150.676 269.858 111.565C269.858 72.7054 281.507 46.1302 298.623 46.1302C315.74 46.1302 326.913 68.9448 327.389 106.802C327.389 109.559 327.27 112.568 327.151 115.576H280.081V117.331C280.437 141.65 287.688 158.698 299.218 158.698C307.776 158.698 314.432 149.171 316.453 132.625H326.319C323.941 158.197 313.957 177 299.931 177ZM280.675 98.5282H316.928C315.978 76.4659 308.846 64.1812 298.742 64.1812C289.827 64.1812 281.626 77.7194 280.675 98.5282Z" fill="white"/>
<path d="M363.472 46.1302C377.142 46.1302 387.958 61.9249 387.958 104.295V175.496H378.211V105.548C378.211 78.973 372.387 64.9334 361.808 64.9334C350.397 64.9334 343.503 82.7337 343.503 111.565V175.496H333.756V47.6346H342.195L343.503 64.9334C347.069 55.1558 353.25 46.1302 363.472 46.1302Z" fill="white"/>
<path d="M400.147 142.152V66.4377H389.212V47.6346H400.147V11.7833H409.894V47.6346H425.584V66.4377H409.894V141.901C409.894 152.681 411.677 156.693 416.907 156.693H426.535V175.496H415.956C404.307 175.496 400.147 164.715 400.147 142.152Z" fill="white"/>
</g>
<defs>
<clipPath id="clip0_42_2">
<rect width="427" height="177" fill="white"/>
</clipPath>
</defs>
</svg>
